<svg id="visual" viewBox="0 0 900 600" width="900" height="600" xmlns="http://www.w3.org/2000/svg" xmlns:xlink="http://www.w3.org/1999/xlink" version="1.1"><rect x="0" y="0" width="900" height="600" fill="#ffffff"></rect><path d="M0 356L21.5 360.8C43 365.7 86 375.3 128.8 380.8C171.7 386.3 214.3 387.7 257.2 395.7C300 403.7 343 418.3 385.8 415.2C428.7 412 471.3 391 514.2 388.2C557 385.3 600 400.7 642.8 397.5C685.7 394.3 728.3 372.7 771.2 365C814 357.3 857 363.7 878.5 366.8L900 370L900 601L878.5 601C857 601 814 601 771.2 601C728.3 601 685.7 601 642.8 601C600 601 557 601 514.2 601C471.3 601 428.7 601 385.8 601C343 601 300 601 257.2 601C214.3 601 171.7 601 128.8 601C86 601 43 601 21.5 601L0 601Z" fill="#e8f5e9"></path><path d="M0 475L21.5 475.7C43 476.3 86 477.7 128.8 473C171.7 468.3 214.3 457.7 257.2 449.5C300 441.3 343 435.7 385.8 440.8C428.7 446 471.3 462 514.2 464C557 466 600 454 642.8 451.5C685.7 449 728.3 456 771.2 457.3C814 458.7 857 454.3 878.5 452.2L900 450L900 601L878.5 601C857 601 814 601 771.2 601C728.3 601 685.7 601 642.8 601C600 601 557 601 514.2 601C471.3 601 428.7 601 385.8 601C343 601 300 601 257.2 601C214.3 601 171.7 601 128.8 601C86 601 43 601 21.5 601L0 601Z" fill="#b6d0bd"></path><path d="M0 474L21.5 476C43 478 86 482 128.8 477.7C171.7 473.3 214.3 460.7 257.2 459.2C300 457.7 343 467.3 385.8 470.5C428.7 473.7 471.3 470.3 514.2 471.8C557 473.3 600 479.7 642.8 484.2C685.7 488.7 728.3 491.3 771.2 493.3C814 495.3 857 496.7 878.5 497.3L900 498L900 601L878.5 601C857 601 814 601 771.2 601C728.3 601 685.7 601 642.8 601C600 601 557 601 514.2 601C471.3 601 428.7 601 385.8 601C343 601 300 601 257.2 601C214.3 601 171.7 601 128.8 601C86 601 43 601 21.5 601L0 601Z" fill="#83ac95"></path><path d="M0 487L21.5 491.2C43 495.3 86 503.7 128.8 511.2C171.7 518.7 214.3 525.3 257.2 525.7C300 526 343 520 385.8 512C428.7 504 471.3 494 514.2 496.2C557 498.3 600 512.7 642.8 518.5C685.7 524.3 728.3 521.7 771.2 521.7C814 521.7 857 524.3 878.5 525.7L900 527L900 601L878.5 601C857 601 814 601 771.2 601C728.3 601 685.7 601 642.8 601C600 601 557 601 514.2 601C471.3 601 428.7 601 385.8 601C343 601 300 601 257.2 601C214.3 601 171.7 601 128.8 601C86 601 43 601 21.5 601L0 601Z" fill="#4f8971"></path><path d="M0 565L21.5 563C43 561 86 557 128.8 552.8C171.7 548.7 214.3 544.3 257.2 545C300 545.7 343 551.3 385.8 549.3C428.7 547.3 471.3 537.7 514.2 540.2C557 542.7 600 557.3 642.8 559.2C685.7 561 728.3 550 771.2 543C814 536 857 533 878.5 531.5L900 530L900 601L878.5 601C857 601 814 601 771.2 601C728.3 601 685.7 601 642.8 601C600 601 557 601 514.2 601C471.3 601 428.7 601 385.8 601C343 601 300 601 257.2 601C214.3 601 171.7 601 128.8 601C86 601 43 601 21.5 601L0 601Z" fill="#026751"></path></svg>