<svg id="visual" viewBox="0 0 960 300" width="960" height="300" xmlns="http://www.w3.org/2000/svg" xmlns:xlink="http://www.w3.org/1999/xlink" version="1.1"><rect x="0" y="0" width="960" height="300" fill="#ffffff"></rect><path d="M0 70L26.7 72.8C53.3 75.7 106.7 81.3 160 77.7C213.3 74 266.7 61 320 57.3C373.3 53.7 426.7 59.3 480 80.3C533.3 101.3 586.7 137.7 640 136C693.3 134.3 746.7 94.7 800 93.7C853.3 92.7 906.7 130.3 933.3 149.2L960 168L960 0L933.3 0C906.7 0 853.3 0 800 0C746.7 0 693.3 0 640 0C586.7 0 533.3 0 480 0C426.7 0 373.3 0 320 0C266.7 0 213.3 0 160 0C106.7 0 53.3 0 26.7 0L0 0Z" fill="#dbf0de" stroke-linecap="round" stroke-linejoin="miter"></path></svg>